# xmcd
#
# Track frame offsets:
# 150
# 18086
# 38520
# 59420
# 74887
# 93586
# 115052
# 133551
# 150710
# 173549
# 190286
# 202158
# 223198
# 242070
# 265019
# 282673
#
# Disc length: 4018 seconds
#
# Revision: 0
# Processed by: cddbd v1.5.1PL2 Copyright (c) Steve Scherf et al.
# Submitted via: Audion 3.0.2 (http://www.panic.com/audion/)
#
DISCID=ef0fb010
DTITLE=arah mclachlan - best
DYEAR=1900
DGENRE=
TTITLE0=mary
TTITLE1=angel
TTITLE2=else where
TTITLE3=plenty
TTITLE4=building a mystery
TTITLE5=i love you
TTITLE6=a lia
TTITLE7=do what you have to do
TTITLE8=black and white
TTITLE9=fun of grace
TTITLE10=loot dance
TTITLE11=possession
TTITLE12=wait
TTITLE13=good enough
TTITLE14=ice
TTITLE15=hold on
EXTD=
EXTT0=
EXTT1=
EXTT2=
EXTT3=
EXTT4=
EXTT5=
EXTT6=
EXTT7=
EXTT8=
EXTT9=
EXTT10=
EXTT11=
EXTT12=
EXTT13=
EXTT14=
EXTT15=
PLAYORDER=
